<?xml version="1.0" standalone="no"?>
<!DOCTYPE svg PUBLIC "-//W3C//DTD SVG 20010904//EN"
 "http://www.w3.org/TR/2001/REC-SVG-20010904/DTD/svg10.dtd">
<svg version="1.0" xmlns="http://www.w3.org/2000/svg"
 width="1064.000000pt" height="624.000000pt" viewBox="0 0 1064.000000 624.000000"
 preserveAspectRatio="xMidYMid meet">
<g transform="translate(0.000000,624.000000) scale(0.100000,-0.100000)"
fill="#ffffff" stroke="none">
<path d="M6680 6210 c-47 -16 -125 -44 -175 -64 -49 -19 -99 -35 -110 -36 -11
0 -56 -21 -99 -46 -52 -31 -96 -48 -131 -53 -70 -10 -114 -39 -166 -112 -89
-125 -105 -144 -133 -157 -25 -13 -106 -122 -106 -144 0 -5 -26 -70 -59 -146
-81 -189 -96 -241 -130 -443 -19 -113 -46 -227 -76 -318 -25 -78 -45 -150 -45
-160 0 -10 -28 -47 -63 -82 -35 -35 -91 -104 -126 -154 -35 -49 -69 -93 -75
-97 -6 -4 -25 -8 -43 -8 -17 0 -34 -4 -38 -9 -7 -13 -57 -19 -230 -31 -84 -5
-155 -15 -177 -24 -21 -9 -51 -16 -69 -16 -17 0 -67 -16 -111 -35 -45 -20
-113 -43 -152 -51 -39 -8 -100 -21 -136 -29 -36 -8 -87 -15 -115 -15 -68 0
-169 -23 -243 -54 -34 -14 -76 -26 -93 -26 -27 0 -45 -12 -103 -72 -39 -40
-98 -104 -130 -142 -33 -37 -102 -103 -155 -144 -53 -42 -136 -112 -186 -156
-56 -50 -113 -90 -154 -108 -35 -15 -138 -79 -230 -141 -91 -62 -227 -145
-301 -184 -74 -39 -207 -110 -295 -158 -88 -48 -214 -116 -280 -151 -137 -72
-398 -179 -477 -195 -29 -6 -93 -20 -143 -31 -77 -17 -140 -21 -429 -26 l-339
-5 -36 -31 c-20 -18 -53 -44 -73 -59 -21 -15 -51 -54 -70 -89 -67 -124 -211
-364 -248 -413 -21 -27 -55 -83 -75 -124 -48 -96 -54 -162 -55 -583 l0 -318
35 -39 c19 -21 35 -43 35 -48 0 -5 20 -33 45 -62 54 -63 66 -84 76 -131 28
-137 50 -184 128 -274 23 -26 48 -60 55 -74 33 -64 109 -114 190 -126 34 -5
431 -11 884 -13 l823 -3 30 49 c27 43 42 54 127 96 114 55 172 92 172 112 0
18 28 28 120 43 41 6 123 23 182 36 91 21 133 24 290 24 227 0 271 18 133 53
l-60 16 185 1 c102 0 239 5 305 10 66 6 190 15 275 20 85 5 209 16 275 24 66
8 183 18 260 21 220 10 252 17 453 100 l182 75 132 10 c73 5 567 15 1098 20
531 6 1017 15 1080 20 63 5 162 10 220 10 137 1 229 13 324 44 59 20 100 26
162 26 99 0 297 16 449 36 61 8 157 19 215 25 67 7 134 21 185 40 70 25 101
30 255 38 128 7 204 17 285 36 148 35 143 34 150 54 3 10 22 36 43 58 20 22
66 82 102 132 36 51 90 113 120 138 74 63 87 80 104 138 11 37 29 64 72 105
87 85 150 185 157 252 4 30 14 75 22 99 9 24 21 96 26 159 13 152 23 191 70
283 41 80 98 261 119 378 7 35 21 101 32 147 18 79 19 117 15 1080 -4 1077 0
1013 -63 1175 -39 102 -80 151 -177 206 -78 44 -135 98 -161 150 -26 50 -48
73 -101 105 -18 12 -61 47 -94 79 -45 43 -64 70 -77 110 -27 83 -53 127 -111
188 l-54 56 -107 6 c-75 3 -132 13 -191 31 -123 38 -222 57 -343 65 -94 6
-110 10 -141 34 l-36 27 -1108 0 -1108 -1 -85 -29z m2291 -833 c104 -35 175
-84 295 -202 154 -152 236 -279 302 -467 57 -161 77 -332 48 -402 -8 -19 -30
-51 -50 -72 -32 -34 -36 -44 -36 -94 0 -84 12 -95 154 -145 63 -23 124 -78
149 -134 11 -25 38 -65 62 -90 174 -190 256 -477 226 -794 -32 -340 -152 -548
-415 -721 -329 -217 -688 -354 -1166 -447 -442 -86 -671 -10 -885 291 -66 92
-130 145 -224 182 -46 18 -77 22 -171 22 l-115 1 -245 -82 c-296 -98 -534
-159 -650 -167 -62 -3 -209 -36 -545 -120 -661 -164 -955 -225 -1280 -261 -77
-9 -165 -23 -195 -31 -73 -21 -254 -95 -668 -275 -411 -179 -664 -280 -869
-347 -252 -83 -1556 -410 -1867 -467 -130 -24 -201 -2 -242 77 -34 66 -6 221
61 332 98 162 301 332 615 513 650 376 839 472 1950 990 1407 657 2134 977
2385 1049 262 76 403 128 671 244 153 67 302 131 329 142 162 63 179 94 225
418 11 80 30 176 41 215 64 215 233 433 404 522 239 123 669 240 1090 297 387
53 514 58 616 23z"/>
<path d="M8595 5294 c-491 -48 -1117 -201 -1325 -324 -228 -134 -324 -321
-375 -729 -41 -324 -74 -368 -354 -462 -80 -28 -229 -90 -331 -139 -102 -49
-245 -109 -318 -133 -138 -46 -172 -66 -172 -101 1 -36 95 -261 109 -261 7 0
18 16 25 35 7 24 18 36 33 38 18 3 24 -5 37 -52 20 -68 49 -91 103 -83 60 10
77 35 75 112 -1 36 2 65 7 65 5 0 19 -14 31 -30 24 -34 68 -60 100 -60 31 0
95 36 119 66 12 15 24 44 27 66 4 21 8 38 10 38 2 0 24 -11 50 -25 69 -37 108
-33 153 13 20 20 43 48 52 61 l15 23 39 -27 c36 -24 46 -26 99 -21 32 3 74 6
92 6 l34 0 0 54 c0 46 3 56 20 61 15 5 27 -1 42 -20 43 -55 149 -82 195 -50
12 8 27 31 33 50 6 19 15 35 19 35 4 0 24 -9 46 -20 26 -13 59 -20 96 -20 70
0 105 24 114 78 11 66 12 66 58 29 23 -20 55 -39 71 -43 25 -6 34 -1 86 55
l57 61 44 -20 c87 -39 155 -17 193 65 l17 35 49 -25 c78 -39 105 -35 166 30
l52 54 63 -10 c86 -14 118 -6 174 43 l46 41 35 -17 c65 -31 135 -14 222 52 31
23 35 24 72 12 50 -16 90 -8 146 31 25 17 88 51 141 75 111 52 123 61 236 182
l84 90 7 116 c7 112 6 119 -24 207 -72 217 -173 382 -316 519 -132 126 -275
193 -403 189 -20 -1 -99 -7 -176 -15z m160 -328 c132 -24 240 -79 331 -170 55
-55 73 -81 84 -119 30 -109 -17 -214 -160 -358 -142 -142 -282 -224 -513 -301
-317 -104 -571 -152 -771 -146 -122 3 -136 6 -198 35 -126 59 -195 157 -244
348 -35 134 -37 245 -7 301 65 122 312 277 543 342 92 26 329 73 430 86 77 9
418 -3 505 -18z"/>
<path d="M8230 4920 c-251 -35 -653 -182 -737 -271 -43 -46 -131 -193 -144
-243 -29 -106 20 -256 113 -349 82 -81 130 -100 269 -105 245 -8 663 93 921
223 185 93 359 237 406 336 34 70 30 141 -10 209 -57 93 -159 147 -348 186
-89 18 -378 26 -470 14z"/>
<path d="M9205 3910 c-167 -35 -308 -89 -929 -352 -308 -131 -659 -299 -1006
-483 -80 -42 -190 -94 -244 -116 -91 -37 -279 -130 -446 -222 -36 -20 -123
-52 -194 -72 -156 -44 -217 -74 -274 -133 -53 -55 -52 -65 16 -202 51 -103 72
-123 72 -67 0 36 21 64 40 52 5 -3 13 -24 16 -47 4 -22 18 -53 32 -70 24 -28
29 -30 84 -26 84 6 102 27 103 115 0 61 2 68 20 71 17 2 25 -8 44 -52 16 -40
30 -57 51 -66 41 -17 94 -5 133 29 28 26 32 35 35 100 5 84 13 86 57 18 33
-53 61 -65 105 -47 30 12 50 52 50 99 0 40 11 72 24 68 6 -2 20 -21 32 -43 26
-51 63 -72 101 -59 22 8 32 21 47 68 24 73 53 75 70 4 9 -40 29 -43 108 -18
74 24 98 22 98 -6 0 -67 56 -153 99 -153 15 0 23 10 32 43 13 44 37 80 49 72
4 -3 9 -40 12 -84 7 -116 46 -163 93 -111 30 33 45 25 45 -22 0 -66 18 -116
57 -159 28 -30 43 -39 68 -39 31 0 35 3 50 49 14 43 35 68 47 56 2 -3 0 -34
-6 -70 -12 -82 4 -123 58 -149 50 -24 68 -18 81 26 18 65 30 66 60 9 40 -79
67 -80 153 -7 l53 46 47 -24 c26 -13 61 -27 78 -30 49 -11 119 12 167 54 42
37 45 38 88 29 24 -6 70 -11 102 -11 74 -1 105 20 132 90 11 29 26 52 33 52 7
0 27 -10 43 -22 53 -39 104 -32 190 27 41 27 81 59 90 70 14 17 20 18 43 7 46
-21 71 -14 132 38 77 65 82 69 107 109 24 37 38 47 81 56 33 7 130 104 186
188 131 195 168 535 83 772 -66 184 -214 410 -321 492 -96 73 -283 93 -477 53z
m83 -535 c151 -25 280 -90 364 -183 55 -61 71 -99 72 -167 1 -94 -44 -176
-163 -296 -147 -147 -278 -223 -522 -303 -467 -154 -811 -190 -983 -104 -61
31 -130 102 -165 170 -63 125 -105 351 -81 438 21 76 173 211 325 287 153 77
450 153 685 177 86 8 376 -3 468 -19z"/>
<path d="M8794 3329 c-179 -21 -420 -93 -609 -183 -132 -63 -178 -108 -249
-248 -48 -92 -48 -94 -44 -173 5 -103 47 -192 122 -264 73 -68 122 -90 226
-103 75 -8 109 -7 231 11 256 37 537 119 719 210 260 128 440 305 440 430 0
97 -66 188 -173 241 -149 72 -433 106 -663 79z"/>
<path d="M7855 3481 c-10 -17 11 -21 31 -6 18 14 18 14 -3 15 -12 0 -24 -4
-28 -9z"/>
<path d="M7615 3440 c-164 -33 -737 -179 -902 -230 -89 -27 -283 -93 -430
-146 -147 -53 -397 -141 -555 -194 -328 -112 -349 -121 -463 -190 -91 -55
-366 -246 -403 -279 -43 -40 -21 -45 162 -37 300 11 497 50 726 141 76 30 143
55 148 55 18 0 360 128 472 177 93 41 736 368 1146 585 145 76 237 138 204
137 -8 0 -56 -9 -105 -19z"/>
<path d="M5415 3361 c-113 -40 -267 -104 -520 -216 -121 -54 -272 -120 -335
-147 -92 -39 -185 -96 -460 -277 -190 -125 -419 -272 -510 -326 -198 -118
-258 -172 -306 -271 -42 -87 -65 -109 -300 -285 -278 -209 -508 -356 -743
-473 -218 -110 -1059 -585 -1081 -611 -37 -45 90 -24 530 87 151 39 356 90
455 114 584 141 1044 316 1568 595 120 64 226 112 295 135 159 52 170 61 232
191 52 110 109 183 265 338 265 263 530 442 979 660 240 117 261 133 253 202
-6 56 -109 265 -143 292 -36 28 -82 26 -179 -8z m-1476 -1141 c99 -43 136
-119 112 -231 -41 -191 -254 -311 -416 -235 -91 43 -134 116 -135 227 0 109
42 180 129 218 129 55 216 61 310 21z"/>
<path d="M3741 2129 c-45 -9 -87 -31 -108 -58 -23 -30 -9 -171 17 -171 22 0
180 203 180 232 0 10 -29 9 -89 -3z"/>
<path d="M3885 2024 c-53 -72 -99 -153 -91 -161 10 -10 106 39 127 66 14 17
19 40 19 82 0 32 -4 60 -8 63 -4 2 -26 -20 -47 -50z"/>
<path d="M3680 2596 c-47 -19 -159 -68 -250 -111 -91 -42 -291 -135 -445 -207
-716 -333 -1491 -740 -1818 -955 -290 -191 -469 -403 -484 -574 l-6 -63 24 15
c50 33 633 387 1074 654 797 481 1207 737 1666 1037 238 156 355 238 338 237
-8 0 -52 -15 -99 -33z"/>
<path d="M5845 2455 c-28 -7 -82 -25 -120 -40 -101 -38 -314 -92 -431 -110
-55 -8 -204 -19 -330 -24 -252 -10 -277 -15 -330 -72 -60 -66 -176 -214 -195
-251 -13 -26 -19 -58 -19 -107 0 -61 3 -72 21 -82 33 -17 68 16 100 94 30 74
45 97 64 97 20 0 23 -30 8 -74 -22 -65 -18 -83 23 -96 65 -22 101 8 119 97 7
37 27 56 52 51 13 -2 19 -15 23 -48 5 -44 6 -45 43 -48 33 -3 39 0 55 28 49
91 72 120 93 120 20 0 21 -4 14 -37 -14 -74 -13 -78 23 -81 44 -4 113 30 135
68 10 17 24 49 31 73 10 35 16 42 36 42 23 0 25 -4 25 -45 0 -62 6 -68 63 -60
65 8 98 31 125 86 27 56 47 54 61 -6 8 -33 16 -46 32 -48 34 -5 74 16 92 49 9
18 29 46 43 63 l26 30 27 -42 c29 -47 50 -52 109 -27 39 16 67 49 67 78 0 27
28 32 54 8 28 -26 58 -27 81 -1 24 26 17 53 -45 182 -69 144 -86 157 -175 133z"/>
<path d="M3085 2050 c-17 -18 -17 -20 -1 -20 9 0 19 7 23 15 9 25 -2 27 -22 5z"/>
<path d="M2973 1989 c-33 -21 -80 -85 -70 -95 8 -8 85 47 121 85 l30 31 -25 0
c-13 0 -38 -10 -56 -21z"/>
<path d="M2714 1831 c-34 -16 -69 -39 -78 -52 -15 -22 -23 -89 -10 -89 14 0
122 81 136 102 20 30 32 68 21 68 -4 0 -36 -13 -69 -29z"/>
<path d="M2470 1693 c-42 -16 -80 -56 -80 -84 0 -47 32 -56 85 -24 46 27 62
57 50 94 -6 21 -25 25 -55 14z"/>
<path d="M2248 1532 c-37 -26 -67 -50 -68 -54 0 -11 54 -10 84 2 31 11 59 52
54 78 -3 18 -10 15 -70 -26z"/>
<path d="M1989 1381 c-38 -39 -37 -51 4 -42 44 10 73 27 81 47 9 24 9 24 -25
24 -20 0 -40 -10 -60 -29z"/>
<path d="M1753 1245 c-28 -12 -61 -51 -51 -60 7 -7 84 33 102 54 19 21 19 21
0 21 -10 -1 -33 -7 -51 -15z"/>
<path d="M1534 1121 c-31 -19 -64 -57 -64 -73 0 -14 78 31 94 54 30 42 19 49
-30 19z"/>
<path d="M1285 960 c-32 -33 -23 -38 30 -16 19 8 35 22 35 30 0 26 -34 18 -65
-14z"/>
</g>
</svg>
